<?xml version="1.0" encoding="utf-8"?>
<!-- Generator: Adobe Illustrator 23.0.1, SVG Export Plug-In . SVG Version: 6.00 Build 0)  -->
<svg version="1.1" id="Layer_1" xmlns="http://www.w3.org/2000/svg" xmlns:xlink="http://www.w3.org/1999/xlink" x="0px" y="0px"
	 viewBox="0 0 750 500" style="enable-background:new 0 0 750 500;" xml:space="preserve">
<style type="text/css">
	.st0{opacity:0.36;fill:#CDCECF;enable-background:new    ;}
	.st1{fill:#7971EA;}
	.st2{fill:url(#SVGID_1_);}
	.st3{fill:url(#SVGID_2_);}
	.st4{fill:#4545C9;}
	.st5{fill:url(#SVGID_3_);}
	.st6{fill:url(#SVGID_4_);}
	.st7{fill:url(#SVGID_5_);}
	.st8{fill:url(#SVGID_6_);}
</style>
<g id="BACKGROUND">
</g>
<g id="OBJECTS">
	<g>
		<path class="st0" d="M204.2,373.5h-51.5c-13.8-14.3-17.5-37.1-9.2-55.2c7.8-17.2,24.7-28.6,34.9-44.6
			c21.8-34,11.3-84.8,40.8-112.3c14.8-13.8,36.1-17.7,56.2-19.3s40.9-1.6,59.6-9.4c23-9.7,40.3-30.4,63.9-38.2
			c26.6-8.8,58.3,2.2,73.9,25.4c9.7,14.6,13.4,32.9,24.9,46.1c18.6,21.4,51.3,23,74.4,39.3c15.9,11.2,26.6,29.4,28.7,48.7
			c2.5,23.3-6.4,49.8,7.6,68.6c6.8,9.2,17.9,14.3,25.2,23.1c7.3,8.7,9.4,16.7,7.1,27.8L204.2,373.5L204.2,373.5z"/>
		<path class="st1" d="M217.3,373.5h-51.5c-13.8-14.3-17.5-37.1-9.2-55.2c7.8-17.2,24.7-28.6,34.9-44.6
			c21.8-34,11.3-84.8,40.8-112.3c14.8-13.8,36.1-17.7,56.2-19.3s40.9-1.6,59.6-9.4c23-9.7,40.3-30.4,63.9-38.2
			c26.6-8.8,58.3,2.2,73.9,25.4c9.7,14.6,13.4,32.9,24.9,46.1c18.6,21.4,51.3,23,74.4,39.3c15.9,11.2,26.6,29.4,28.7,48.7
			c2.5,23.3-6.4,49.8,7.6,68.6c6.8,9.2,17.9,14.3,25.2,23.1c7.3,8.7,9.4,16.7,7.1,27.8L217.3,373.5L217.3,373.5z"/>
	</g>
	<path class="st0" d="M335.8,197.2l-2.1,0.1H142.2l-0.5,0.1c-1.9-12.7,8-25.6,20.6-29c10.9-3,23.7-0.3,32.9-7
		c8.2-6,10.3-17.2,15.6-25.8c3.3-5.4,8.1-9.9,13.7-12.8c7-3.8,15.7-5.1,22.8-1.7c12.7,6,15.1,22.8,23.6,34c1.9,2.5,4.3,4.8,7.3,5.7
		c2.8,0.8,5.8,0.2,8.6-0.3c9.4-1.7,20.6-1.5,26.4,6c2.7,3.5,3.7,8.1,5.2,12.3s4,8.5,8.2,10c2,0.7,4.3,0.7,6.1,1.9
		C335,191.9,335.7,194.5,335.8,197.2z"/>
	<path class="st0" d="M643.8,221.3H420.5c-1.8-2.3-2-6-0.7-8.7c1.6-3.7,5.1-6.1,8.5-8.2c3.4-2.1,7.1-4,9.7-7
		c4.9-5.9,4.6-14.3,5.7-21.9c1.3-9,5.1-17.9,11.9-24c2.7-2.4,5.8-4.3,9.1-5.8c9.4-4.4,20.9-5.4,29.7,0c8.4,5.2,12.5,15.2,19.8,21.9
		c1.7,1.6,3.7,3,6,3.5c6.5,1.5,12.1-4.4,17-9c7-6.5,16.3-11.3,25.7-10.1c11.1,1.4,19.7,11,23.9,21.3c1.8,4.3,3.1,9.1,6.6,12.2
		c9,7.9,24.1-1,34.6,4.8c3.9,2.2,6.6,6.1,8.7,10C640,206.8,642.5,214,643.8,221.3z"/>
	
		<linearGradient id="SVGID_1_" gradientUnits="userSpaceOnUse" x1="226.2828" y1="378.0999" x2="226.2828" y2="420.7066" gradientTransform="matrix(1 0 0 -1 0 572.2365)">
		<stop  offset="0" style="stop-color:#F9F3E7"/>
		<stop  offset="1" style="stop-color:#FAFAFA"/>
	</linearGradient>
	<path class="st2" d="M323.4,193.3l-2.1,0.1H129.9l-0.5,0.1c-1.9-12.7,8-25.6,20.6-29c10.9-3,23.7-0.3,32.9-7
		c8.2-6,10.3-17.2,15.6-25.8c3.3-5.4,8.1-9.9,13.7-12.8c7-3.8,15.7-5.1,22.8-1.7c12.7,6,15.1,22.8,23.6,34c1.9,2.5,4.3,4.8,7.3,5.7
		c2.8,0.8,5.8,0.2,8.6-0.3c9.4-1.7,20.6-1.5,26.4,6c2.7,3.5,3.7,8.1,5.2,12.3s4,8.5,8.2,10c2,0.7,4.3,0.7,6.1,1.9
		C322.6,188.1,323.3,190.7,323.4,193.3z"/>
	
		<linearGradient id="SVGID_2_" gradientUnits="userSpaceOnUse" x1="518.3882" y1="348.192" x2="521.0848" y2="389.72" gradientTransform="matrix(1 0 0 -1 0 572.2365)">
		<stop  offset="0" style="stop-color:#F9F3E7"/>
		<stop  offset="1" style="stop-color:#FAFAFA"/>
	</linearGradient>
	<path class="st3" d="M631.4,217.5H408.1c-1.8-2.3-2-6-0.7-8.7c1.6-3.7,5.1-6.1,8.5-8.2c3.4-2.1,7.1-4,9.7-7
		c4.9-5.9,4.6-14.3,5.7-21.9c1.3-9,5.1-17.9,11.9-24c2.7-2.4,5.8-4.3,9.1-5.8c9.4-4.4,20.9-5.4,29.7,0c8.4,5.2,12.5,15.2,19.8,21.9
		c1.7,1.6,3.7,3,6,3.5c6.5,1.5,12.1-4.4,17-9c7-6.5,16.3-11.3,25.7-10.1c11.1,1.4,19.7,11,23.9,21.3c1.8,4.3,3.1,9.1,6.6,12.2
		c9,7.9,24.1-1,34.6,4.8c3.9,2.2,6.6,6.1,8.7,10C627.6,203,630.1,210.1,631.4,217.5z"/>
	<g>
		<path class="st4" d="M331.4,345.2h-16.1v28.2h-38.9v-28.2h-58.2v-28.9l60.7-88.7h36.4v88.2h16.1V345.2z M276.4,315.8v-17
			c0-3.2,0.1-7.5,0.3-12.9c0.2-5.4,0.4-8.3,0.5-8.5h-1.1c-2.3,5.1-4.8,9.9-7.7,14.4l-16.2,24H276.4z"/>
		
			<linearGradient id="SVGID_3_" gradientUnits="userSpaceOnUse" x1="265.2304" y1="189.1857" x2="264.1517" y2="244.1968" gradientTransform="matrix(1 0 0 -1 0 572.2365)">
			<stop  offset="0" style="stop-color:#F9E6D9"/>
			<stop  offset="0.121" style="stop-color:#FCF1EA"/>
			<stop  offset="0.2698" style="stop-color:#FEF9F6"/>
			<stop  offset="0.4751" style="stop-color:#FFFEFD"/>
			<stop  offset="1" style="stop-color:#FFFFFF"/>
		</linearGradient>
		<path class="st5" d="M320.8,345.2h-16.1v28.2h-38.9v-28.2h-58.2v-28.9l60.7-88.7h36.4v88.2h16.1V345.2z M265.8,315.8v-17
			c0-3.2,0.1-7.5,0.3-12.9c0.2-5.4,0.4-8.3,0.5-8.5h-1.1c-2.3,5.1-4.8,9.9-7.7,14.4l-16.2,24H265.8z"/>
	</g>
	<g>
		<path class="st4" d="M585.3,346.2l-5.6-28.9l-10.4,2l-5.3,1l-16.7-86.6l-35.8,6.9l-42.7,98.6l5.5,28.4l57.1-11l3.3,16.8h39.6
			l-4.7-24.2l5.3-1L585.3,346.2z M515.3,329.7l-13.2,2.5l9.4-22.2l1.9-4.5c2-4.9,3.6-10.1,4.8-15.6l1.1-0.2
			c-0.1,0.3,0.3,3.1,1.1,8.5s1.5,9.6,2.1,12.8l3.2,16.7L515.3,329.7z"/>
		
			<linearGradient id="SVGID_4_" gradientUnits="userSpaceOnUse" x1="517.2551" y1="194.1273" x2="516.1765" y2="249.1386" gradientTransform="matrix(1 0 0 -1 0 572.2365)">
			<stop  offset="0" style="stop-color:#F9E6D9"/>
			<stop  offset="0.121" style="stop-color:#FCF1EA"/>
			<stop  offset="0.2698" style="stop-color:#FEF9F6"/>
			<stop  offset="0.4751" style="stop-color:#FFFEFD"/>
			<stop  offset="1" style="stop-color:#FFFFFF"/>
		</linearGradient>
		<path class="st6" d="M574.9,348.2l-5.6-28.9l-15.8,3l-16.8-86.6l-25.3,4.9l-10.4,2l-42.7,98.6l5.5,28.4l10.4-2l46.7-9l2.9,14.8
			h39.6l-4.3-22.2l10.4-2L574.9,348.2z M511.5,310.1c0.2,1.1,0.4,2.1,0.6,3l3.2,16.7l-23.6,4.6l11.3-26.7c2-4.9,3.6-10.1,4.8-15.6
			l1.1-0.2c-0.1,0.3,0.3,3.1,1.1,8.5C510.5,304.2,511.1,307.4,511.5,310.1z"/>
	</g>
	<g>
		<path class="st0" d="M611.8,373.5H210.5c0,0-21.6,14.3,10.5,16.8c32.1,2.4,82.2,4.7,80.9,15.6c-1.2,10.9-30.2,8.8-30.2,28
			c0,19.3,133.7,14.8,133.7,14.8s75.5,1,86.3-11.8s-30.4-24.4-23-29.5c7.5-5,61.8,10.1,69.9-2.2c8.1-12.2-1.6-20,13.3-21.6
			S609.2,388,611.8,373.5z"/>
		<ellipse class="st0" cx="581.4" cy="398.8" rx="30.3" ry="8.6"/>
		<ellipse class="st0" cx="258.4" cy="406.3" rx="26.5" ry="6.6"/>
		
			<linearGradient id="SVGID_5_" gradientUnits="userSpaceOnUse" x1="380.3" y1="67.99" x2="440.5" y2="67.99" gradientTransform="matrix(1 0 0 -1 0 499.89)">
			<stop  offset="0" style="stop-color:#F9E6D9"/>
			<stop  offset="0.121" style="stop-color:#FCF1EA"/>
			<stop  offset="0.2698" style="stop-color:#FEF9F6"/>
			<stop  offset="0.4751" style="stop-color:#FFFEFD"/>
			<stop  offset="1" style="stop-color:#FFFFFF"/>
		</linearGradient>
		<ellipse class="st7" cx="410.4" cy="431.9" rx="30.1" ry="5.8"/>
	</g>
	<g>
		<g>
			<path class="st4" d="M450.2,296.3c-6.2-14.1-17.8-22.9-34.8-26.4c-1.9-0.4-3.7-0.7-5.4-0.9c-15-1.9-27.4,1.7-37.1,10.7
				C362,289.8,354,307.6,348.8,333c-3.2,15.6-4.1,29-2.7,40.4h37.2c-0.5-6.6,0.8-17.5,3.9-32.6c3.3-16.3,6.6-27.3,9.9-33
				c1.9-3.3,4.1-5.5,6.5-6.6c1.7-0.8,3.6-1,5.6-0.5c4.8,1,7.5,4.9,8.2,11.6c0.7,6.8-0.5,18.1-3.8,33.9c-2.4,11.9-4.9,20.9-7.3,27.2
				H447c1.9-5.8,3.5-12.3,5-19.3c1-4.7,1.7-9.1,2.2-13.4C456.6,322.5,455.2,307.7,450.2,296.3z"/>
			
				<linearGradient id="SVGID_6_" gradientUnits="userSpaceOnUse" x1="390.7859" y1="191.6475" x2="389.7072" y2="246.6588" gradientTransform="matrix(1 0 0 -1 0 572.2365)">
				<stop  offset="0" style="stop-color:#F9E6D9"/>
				<stop  offset="0.121" style="stop-color:#FCF1EA"/>
				<stop  offset="0.2698" style="stop-color:#FEF9F6"/>
				<stop  offset="0.4751" style="stop-color:#FFFEFD"/>
				<stop  offset="1" style="stop-color:#FFFFFF"/>
			</linearGradient>
			<path class="st8" d="M439.8,294.2c-5.5-12.7-15.5-21.1-29.8-25.2c-1.6-0.5-3.3-0.9-5-1.2c-17.5-3.6-31.6-0.3-42.5,9.8
				c-10.9,10.1-18.9,27.9-24.1,53.3c-1.1,5.2-1.9,10.1-2.4,14.8c-1.2,10.3-1.2,19.6,0,27.7h37.1c0-0.2-0.1-0.5-0.1-0.7
				c-0.8-6.5,0.5-17.8,3.8-34c3.3-16.3,6.6-27.3,9.9-33s7.3-8.1,12-7.1c2,0.4,3.6,1.3,4.8,2.7c1.9,2,3,5,3.4,8.9
				c0.7,6.8-0.5,18.1-3.8,33.9c-2.7,13.3-5.5,23-8.2,29.3h40.9c2.2-6.4,4.1-13.5,5.7-21.4C446.6,327.6,446,308.3,439.8,294.2z"/>
		</g>
	</g>
</g>
<g id="DESIGNED_BY_FREEPIK">
</g>
</svg>
